<svg xmlns="http://www.w3.org/2000/svg" viewBox="0 0 32 32" fill="none">
  <rect width="32" height="32" rx="4" fill="#1e3a8a"/>
  <path d="M16 6c-1.2 0-2.4.3-3.5.9-1.1.6-2 1.4-2.7 2.5-.7 1.1-1.1 2.3-1.1 3.6 0 .8.1 1.5.4 2.2L8 16c-.3-.2-.7-.3-1-.3-.6 0-1.2.2-1.6.6-.4.4-.6 1-.6 1.6 0 .3.1.7.3 1l1.1.8c.4.3.8.4 1.3.4.8 0 1.5-.3 2-.9l1.1-.8c.5.7 1.2 1.3 2 1.7.8.4 1.6.6 2.5.6 1.2 0 2.4-.3 3.5-.9 1.1-.6 2-1.4 2.7-2.5.7-1.1 1.1-2.3 1.1-3.6 0-1.3-.4-2.5-1.1-3.6-.7-1.1-1.6-1.9-2.7-2.5C18.4 6.3 17.2 6 16 6z" fill="#fbbf24"/>
  <path d="M16 8c.8 0 1.5.3 2.1.8.6.5.9 1.2.9 2 0 .4-.1.8-.3 1.1-.2.3-.5.6-.8.8-.3.2-.7.3-1.1.3-.4 0-.8-.1-1.1-.3-.3-.2-.6-.5-.8-.8-.2-.3-.3-.7-.3-1.1 0-.8.3-1.5.9-2C14.5 8.3 15.2 8 16 8z" fill="#dc2626"/>
  <path d="M12 18c0 .6.2 1.2.6 1.6.4.4 1 .6 1.6.6h3.6c.6 0 1.2-.2 1.6-.6.4-.4.6-1 .6-1.6v-2c0-.6-.2-1.2-.6-1.6-.4-.4-1-.6-1.6-.6h-3.6c-.6 0-1.2.2-1.6.6-.4.4-.6 1-.6 1.6v2z" fill="#fbbf24"/>
  <path d="M21 20c.8 0 1.5.3 2.1.8.6.5.9 1.2.9 2 0 .4-.1.8-.3 1.1-.2.3-.5.6-.8.8-.3.2-.7.3-1.1.3-.4 0-.8-.1-1.1-.3-.3-.2-.6-.5-.8-.8-.2-.3-.3-.7-.3-1.1 0-.8.3-1.5.9-2 .6-.5 1.3-.8 2.1-.8z" fill="#dc2626"/>
  <path d="M11 20c.8 0 1.5.3 2.1.8.6.5.9 1.2.9 2 0 .4-.1.8-.3 1.1-.2.3-.5.6-.8.8-.3.2-.7.3-1.1.3-.4 0-.8-.1-1.1-.3-.3-.2-.6-.5-.8-.8-.2-.3-.3-.7-.3-1.1 0-.8.3-1.5.9-2 .6-.5 1.3-.8 2.1-.8z" fill="#dc2626"/>
</svg> 